<svg width="1000" height="1000" viewBox="0 0 1000 1000" fill="none" xmlns="http://www.w3.org/2000/svg">
<path d="M962 594.446C917.865 809.924 727.26 972 498.815 972C237.687 972 26 760.231 26 499C26 237.769 237.687 26 498.815 26C727.26 26 917.865 188.076 962 403.554" stroke="black" stroke-width="52" stroke-linecap="square"/>
<path d="M772.557 752.252C833.862 685.812 871.313 597.03 871.313 499.5C871.313 293.601 704.399 126.687 498.5 126.687C434.386 126.687 374.051 142.871 321.36 171.378M676.568 827.119C623.657 855.938 562.991 872.313 498.5 872.313C292.601 872.313 125.687 705.399 125.687 499.5C125.687 405.969 160.13 320.483 217.023 255.032" stroke="black" stroke-width="52" stroke-linecap="square"/>
<path d="M758.606 568.594C728.106 683.712 623.212 768.56 498.5 768.56C349.902 768.56 229.44 648.098 229.44 499.5C229.44 350.902 349.902 230.44 498.5 230.44C623.212 230.44 728.106 315.288 758.606 430.406" stroke="black" stroke-width="52" stroke-linecap="square"/>
<path d="M681 500.448L398 364V641L681 500.448Z" fill="#E80036"/>
<path d="M398 364 V750 H450 V 389.0717" fill="black"/>
<path d="M670 180.5L624.5 260" stroke="black" stroke-width="52" stroke-linecap="square"/>
<path d="M40 500.448H100" stroke="black" stroke-width="52" stroke-linecap="square"/>
</svg>