<svg width="2506" height="998" viewBox="0 0 2506 998" fill="none" xmlns="http://www.w3.org/2000/svg">
<path d="M2330.08 695.051V369.066H2225.64V302.691H2505.35V369.066H2401.15V695.051H2330.08Z" fill="white"/>
<path d="M1880.13 567.387L1949.27 559.893C1953.44 585.765 1961.84 604.767 1974.48 616.9C1987.29 629.033 2004.5 635.1 2026.1 635.1C2048.99 635.1 2066.2 629.747 2077.72 619.041C2089.41 608.157 2095.25 595.489 2095.25 581.037C2095.25 571.758 2092.77 563.908 2087.81 557.484C2083.01 550.882 2074.52 545.173 2062.36 540.355C2054.03 537.144 2035.07 531.434 2005.46 523.226C1967.36 512.699 1940.63 499.763 1925.26 484.419C1903.66 462.829 1892.85 436.511 1892.85 405.465C1892.85 385.481 1897.89 366.835 1907.98 349.528C1918.22 332.042 1932.87 318.749 1951.91 309.65C1971.12 300.55 1994.25 296 2021.3 296C2065.48 296 2098.69 306.795 2120.94 328.384C2143.35 349.974 2155.11 378.79 2156.23 414.832L2085.17 418.311C2082.13 398.149 2075.56 383.697 2065.48 374.954C2055.56 366.032 2040.59 361.572 2020.58 361.572C1999.93 361.572 1983.77 366.3 1972.08 375.757C1964.56 381.823 1960.8 389.942 1960.8 400.112C1960.8 409.39 1964.32 417.33 1971.36 423.932C1980.33 432.318 2002.09 441.061 2036.67 450.161C2071.24 459.26 2096.77 468.717 2113.26 478.53C2129.9 488.165 2142.87 501.458 2152.15 518.409C2161.6 535.181 2166.32 555.968 2166.32 580.769C2166.32 603.251 2160.72 624.305 2149.51 643.932C2138.31 663.559 2122.46 678.19 2101.97 687.825C2081.49 697.281 2055.96 702.01 2025.38 702.01C1980.89 702.01 1946.71 690.59 1922.86 667.752C1899.01 644.735 1884.77 611.28 1880.13 567.387Z" fill="white"/>
<path d="M1736.05 372.277V302.691H1803.51V372.277H1736.05ZM1736.05 695.051V410.818H1803.51V695.051H1736.05Z" fill="#E80036"/>
<path d="M1585.25 604.589L1652.47 617.168C1643.83 644.646 1630.15 665.611 1611.42 680.063C1592.85 694.337 1569.56 701.474 1541.55 701.474C1497.21 701.474 1464.4 685.327 1443.11 653.032C1426.31 627.16 1417.9 594.508 1417.9 555.075C1417.9 507.971 1428.95 471.126 1451.03 444.54C1473.12 417.776 1501.05 404.394 1534.83 404.394C1572.76 404.394 1602.69 418.401 1624.62 446.414C1646.55 474.248 1657.04 516.981 1656.08 574.613H1487.05C1487.53 596.916 1492.97 614.313 1503.38 626.803C1513.78 639.114 1526.74 645.27 1542.27 645.27C1552.83 645.27 1561.72 642.058 1568.92 635.635C1576.12 629.212 1581.57 618.863 1585.25 604.589ZM1589.09 528.579C1588.61 506.811 1583.57 490.307 1573.96 479.066C1564.36 467.646 1552.67 461.937 1538.91 461.937C1524.18 461.937 1512.02 467.914 1502.42 479.869C1492.81 491.823 1488.09 508.06 1488.25 528.579H1589.09Z" fill="#E80036"/>
<path d="M1179.47 302.691V446.949C1201.24 418.579 1227.25 404.394 1257.5 404.394C1273.02 404.394 1287.03 407.606 1299.51 414.029C1312 420.453 1321.36 428.66 1327.6 438.652C1334.01 448.644 1338.33 459.706 1340.57 471.839C1342.97 483.972 1344.17 502.796 1344.17 528.311V695.051H1276.7V544.905C1276.7 515.108 1275.42 496.195 1272.86 488.166C1270.3 480.136 1265.74 473.802 1259.18 469.163C1252.78 464.346 1244.69 461.937 1234.93 461.937C1223.72 461.937 1213.72 464.97 1204.92 471.037C1196.11 477.103 1189.63 486.292 1185.47 498.603C1181.47 510.736 1179.47 528.758 1179.47 552.667V695.051H1112V302.691H1179.47Z" fill="#E80036"/>
<path d="M962 594.446C917.865 809.924 727.26 972 498.815 972C237.687 972 26 760.231 26 499C26 237.769 237.687 26 498.815 26C727.26 26 917.865 188.076 962 403.554" stroke="white" stroke-width="52" stroke-linecap="square"/>
<path d="M772.557 752.252C833.862 685.812 871.313 597.03 871.313 499.5C871.313 293.601 704.399 126.687 498.5 126.687C434.386 126.687 374.051 142.871 321.36 171.378M676.568 827.119C623.657 855.938 562.991 872.313 498.5 872.313C292.601 872.313 125.687 705.399 125.687 499.5C125.687 405.969 160.13 320.483 217.023 255.032" stroke="white" stroke-width="52" stroke-linecap="square"/>
<path d="M758.606 568.594C728.106 683.712 623.212 768.56 498.5 768.56C349.902 768.56 229.44 648.098 229.44 499.5C229.44 350.902 349.902 230.44 498.5 230.44C623.212 230.44 728.106 315.288 758.606 430.406" stroke="white" stroke-width="52" stroke-linecap="square"/>
<path d="M681 500.448L398 364V641L681 500.448Z" fill="#E80036"/>
<path d="M398 364 V750 H450 V 389.0717" fill="white"/>
<path d="M670 180.5L624.5 260" stroke="white" stroke-width="52" stroke-linecap="square"/>
<path d="M40 500.448H100" stroke="white" stroke-width="52" stroke-linecap="square"/>
</svg>
